<?xml version="1.0" encoding="UTF-8"?><svg id="Layer_2" xmlns="http://www.w3.org/2000/svg" viewBox="0 0 90.65 113.64"><g id="Layer_1-2"><path d="M84.46,102.68c-.12,0-.24-.01-.36-.03-1.2-.2-2.01-1.33-1.81-2.52,1.66-10.1,3.61-29.97,2.75-33.28-.8-2.97-9.96-14.96-20.54-20.12-1.09-.53-1.54-1.84-1.01-2.93.53-1.09,1.84-1.54,2.94-1.01,11.1,5.42,21.61,18.3,22.85,22.94,1.23,4.78-1.34,27.05-2.67,35.11-.18,1.08-1.11,1.84-2.16,1.84" style="fill:#fff;"/><path d="M59.66,95.2c-.93,0-1.79-.59-2.09-1.52-2.22-6.81-5.74-13.47-9.14-19.9-1.28-2.43-2.56-4.84-3.78-7.27-2.93-5.7-2.37-11.83,1.29-13.95,1.25-.73,5.79-2.45,11.16,5.85,3.31,5.27,6.78,8.37,9.76,10.86.93.78,1.05,2.16.28,3.09-.78.93-2.17,1.05-3.09.28-3.25-2.71-7.02-6.08-10.65-11.87-2.65-4.08-4.66-4.72-5.26-4.41-.99.57-1.74,3.98.42,8.17,1.21,2.42,2.48,4.81,3.74,7.21,3.5,6.6,7.1,13.42,9.44,20.6.37,1.15-.25,2.39-1.41,2.76-.22.08-.45.11-.68.11" style="fill:#fff;"/><path d="M88.45,113.64h-18.21c-1.21,0-2.19-.98-2.19-2.19s.98-2.19,2.19-2.19h16.02v-6.58h-27.51v6.58h2.97c1.21,0,2.19.98,2.19,2.19s-.98,2.19-2.19,2.19h-5.16c-1.21,0-2.19-.98-2.19-2.19v-10.96c0-1.21.98-2.19,2.19-2.19h31.9c1.21,0,2.19.98,2.19,2.19v10.96c0,1.21-.98,2.19-2.19,2.19" style="fill:#fff;"/><path d="M51.13,91.33h-29.96c-4.2,0-7.49-3.29-7.49-7.48v-5.94c0-1.21.98-2.19,2.19-2.19s2.19.98,2.19,2.19v5.94c0,1.77,1.33,3.1,3.1,3.1h29.96c1.21,0,2.19.98,2.19,2.19s-.98,2.19-2.19,2.19M65.47,63.98c-1.21,0-2.19-.98-2.19-2.19V7.48c0-1.71-1.39-3.1-3.1-3.1H21.18c-1.71,0-3.1,1.39-3.1,3.1v16.51c0,1.21-.98,2.19-2.19,2.19s-2.19-.98-2.19-2.19V7.48C13.69,3.36,17.05,0,21.18,0h39c4.13,0,7.49,3.35,7.49,7.48v54.31c0,1.21-.98,2.19-2.19,2.19Z" style="fill:#fff;"/><path d="M51.13,10.83h-20.92c-.9,0-1.7-.54-2.04-1.38l-2.58-6.45c-.45-1.12.1-2.4,1.22-2.85,1.13-.45,2.4.1,2.85,1.22l2.03,5.07h17.95l2.03-5.07c.45-1.12,1.73-1.67,2.85-1.22,1.12.45,1.67,1.72,1.22,2.85l-2.58,6.45c-.33.84-1.14,1.38-2.04,1.38" style="fill:#fff;"/><path d="M41.32,84.87h-1.29c-1.21,0-2.19-.98-2.19-2.19s.98-2.19,2.19-2.19h1.29c1.21,0,2.19.98,2.19,2.19s-.98,2.19-2.19,2.19" style="fill:#fff;"/><path d="M30.22,54.56c-.35,0-.7-.08-1.01-.25-.73-.38-1.18-1.12-1.18-1.94v-8.77c0-1.21.98-2.19,2.19-2.19s2.19.98,2.19,2.19v4.57l15.27-10.63-15.27-10.64v4.7c0,1.21-.98,2.19-2.19,2.19s-2.19-.98-2.19-2.19v-8.9c0-.82.45-1.57,1.18-1.94.72-.39,1.6-.33,2.27.14l21.31,14.83c.59.41.94,1.08.94,1.8s-.35,1.39-.94,1.8l-21.31,14.83c-.37.26-.82.39-1.25.39" style="fill:#fff;"/><path d="M30.35,72.36h-8.78c-11.89,0-21.56-9.6-21.56-21.41s9.67-21.54,21.56-21.54h8.65c1.21,0,2.19.98,2.19,2.19s-.98,2.19-2.19,2.19h-8.65c-9.47,0-17.18,7.7-17.18,17.16s7.71,17.03,17.18,17.03h8.78c1.21,0,2.19.98,2.19,2.19s-.98,2.19-2.19,2.19" style="fill:#fff;"/><path d="M21.56,60.36c-5.2,0-9.42-4.22-9.42-9.41s4.14-9.55,9.42-9.55h8.65c1.21,0,2.19.98,2.19,2.19s-.98,2.19-2.19,2.19h-8.65c-2.83,0-5.04,2.27-5.04,5.16s2.26,5.03,5.04,5.03c1.21,0,2.19.98,2.19,2.19s-.98,2.19-2.19,2.19" style="fill:#fff;"/></g></svg>