<?xml version="1.0" encoding="UTF-8"?><svg id="Layer_2" xmlns="http://www.w3.org/2000/svg" xmlns:xlink="http://www.w3.org/1999/xlink" viewBox="0 0 286.61 49.47"><defs><clipPath id="clippath"><rect width="286.61" height="49.47" style="fill:none;"/></clipPath><clipPath id="clippath-1"><rect x="-28.35" y="-31.91" width="1133.86" height="113.28" style="fill:none;"/></clipPath><clipPath id="clippath-2"><rect x="-28.35" y="-60.25" width="1133.86" height="4251.97" style="fill:none;"/></clipPath><clipPath id="clippath-3"><rect x="-28.33" y="-60.26" width="1133.85" height="4251.96" style="fill:none;"/></clipPath></defs><g id="Layer_1-2"><g style="clip-path:url(#clippath);"><g style="clip-path:url(#clippath-1);"><g style="clip-path:url(#clippath-2);"><g style="clip-path:url(#clippath-3);"><path d="M14.02,14.03h22.15v7.01h-15.13v7.01h8.12v7.01h-8.12v14H0V0h29.11C42.6,0,53.64,11.04,53.64,24.54s-11.04,24.53-24.53,24.53h-1.06v-7.01h1.06c9.64,0,17.52-7.88,17.52-17.52S38.74,7.02,29.11,7.02H7.01v35.04h7.01V14.03" style="fill:#fff; fill-rule:evenodd;"/><path d="M70.52,23.19c-.95,0-1.7-.17-2.27-.52-.57-.35-.99-.79-1.24-1.33-.26-.54-.39-1.12-.39-1.72v-9.55h-2.56l.24-2.14h2.32v-3.69l2.75-.27v3.97h3.93v2.14h-3.93v7.87c0,.96.06,1.65.17,2.07.11.43.39.7.83.81.44.11,1.16.17,2.14.17h.7l-.21,2.2h-2.47" style="fill:#f39200;"/><path d="M75.61,22.88V0h2.78v10.52l-.98-.06c.7-.88,1.46-1.58,2.26-2.08.81-.5,1.84-.76,3.1-.76s2.37.29,3.23.87c.86.58,1.51,1.39,1.94,2.42.43,1.04.65,2.25.65,3.63v8.33h-2.75v-7.99c0-1.65-.3-2.86-.91-3.65-.6-.78-1.53-1.17-2.78-1.17-.94,0-1.78.25-2.51.76-.73.51-1.3,1.19-1.73,2.04l.46-1.68v11.68h-2.78" style="fill:#f39200;"/><path d="M99.35,23.19c-1.76,0-3.24-.36-4.44-1.08-1.2-.72-2.11-1.68-2.72-2.88-.62-1.19-.92-2.51-.92-3.94s.29-2.67.86-3.83c.57-1.16,1.41-2.09,2.5-2.78,1.09-.7,2.41-1.04,3.96-1.04,1.24,0,2.35.25,3.32.74.97.49,1.73,1.21,2.29,2.15.55.94.83,2.08.83,3.42,0,.21,0,.44-.02.69-.02.25-.05.51-.1.77h-10.83c.13,1.38.46,2.46.99,3.23.53.77,1.19,1.32,2,1.63.8.32,1.68.47,2.62.47.69,0,1.41-.07,2.17-.21.75-.14,1.47-.37,2.14-.67l.37,2.17c-.58.25-1.29.51-2.12.77-.84.26-1.79.39-2.88.39M94.31,13.52h7.87c0-.7-.13-1.31-.4-1.83-.26-.52-.67-.92-1.21-1.2-.54-.28-1.23-.42-2.06-.42-1.22,0-2.16.3-2.82.91s-1.12,1.45-1.39,2.54Z" style="fill:#f39200;"/><path d="M65.85,49.04v-21.36h7.99c2.03,0,3.84.43,5.43,1.27,1.59.85,2.83,2.07,3.74,3.66.91,1.59,1.36,3.51,1.36,5.74s-.45,4.15-1.36,5.74c-.9,1.59-2.15,2.81-3.74,3.66-1.59.85-3.4,1.27-5.43,1.27h-7.99M69.75,45.57h4.09c1.38,0,2.54-.29,3.46-.87.93-.58,1.62-1.41,2.09-2.49.47-1.08.7-2.36.7-3.84s-.23-2.77-.7-3.84c-.47-1.08-1.17-1.91-2.09-2.49-.92-.58-2.08-.87-3.46-.87h-4.09v14.4Z" style="fill:#fff;"/><path d="M97.06,49.47c-2.03,0-3.84-.46-5.43-1.38-1.59-.92-2.83-2.21-3.74-3.88-.91-1.66-1.36-3.61-1.36-5.85s.45-4.19,1.36-5.85c.9-1.66,2.15-2.96,3.74-3.88,1.59-.92,3.4-1.38,5.43-1.38s3.84.46,5.43,1.38c1.59.92,2.83,2.21,3.74,3.88.9,1.66,1.36,3.61,1.36,5.85s-.45,4.19-1.36,5.85c-.91,1.66-2.15,2.96-3.74,3.88-1.59.92-3.4,1.38-5.43,1.38M97.06,45.69c1.42,0,2.61-.31,3.57-.94.96-.63,1.67-1.5,2.15-2.6.48-1.1.72-2.36.72-3.78s-.24-2.67-.72-3.77c-.48-1.1-1.2-1.97-2.15-2.6-.95-.63-2.15-.95-3.57-.95s-2.61.31-3.57.95c-.96.63-1.67,1.5-2.15,2.6-.48,1.1-.72,2.36-.72,3.77s.24,2.67.72,3.78c.48,1.1,1.19,1.97,2.15,2.6.96.63,2.15.94,3.57.94Z" style="fill:#fff;"/><path d="M120.25,49.47c-2.03,0-3.84-.46-5.43-1.38s-2.83-2.21-3.74-3.88c-.91-1.66-1.36-3.61-1.36-5.85s.45-4.19,1.36-5.85c.9-1.66,2.15-2.96,3.74-3.88,1.59-.92,3.4-1.38,5.43-1.38s3.84.46,5.43,1.38c1.59.92,2.83,2.21,3.74,3.88.91,1.66,1.36,3.61,1.36,5.85s-.45,4.19-1.36,5.85c-.91,1.66-2.15,2.96-3.74,3.88-1.59.92-3.4,1.38-5.43,1.38M120.25,45.69c1.42,0,2.61-.31,3.57-.94.96-.63,1.67-1.5,2.15-2.6.48-1.1.72-2.36.72-3.78s-.24-2.67-.72-3.77c-.48-1.1-1.2-1.97-2.15-2.6s-2.15-.95-3.57-.95-2.61.31-3.57.95c-.96.63-1.67,1.5-2.15,2.6-.48,1.1-.72,2.36-.72,3.77s.24,2.67.72,3.78c.48,1.1,1.19,1.97,2.15,2.6.95.63,2.15.94,3.57.94Z" style="fill:#fff;"/><path d="M134.19,49.04v-21.35h7.81c1.47,0,2.76.23,3.87.7,1.1.47,1.96,1.18,2.57,2.14.61.96.92,2.17.92,3.63,0,1.57-.33,2.81-1,3.73-.67.92-1.54,1.65-2.63,2.19l4.82,8.97h-4.36l-4.12-7.93h-3.97v7.93h-3.91M138.09,37.85h2.87c1.61,0,2.73-.33,3.36-.98.63-.66.95-1.49.95-2.49,0-1.07-.31-1.9-.93-2.51-.62-.6-1.69-.91-3.22-.91h-3.02v6.89Z" style="fill:#fff;"/><polyline points="160.15 49.04 160.15 27.69 173.3 27.69 173.3 31.47 164.05 31.47 164.05 36.02 171.19 36.02 171.19 39.8 164.05 39.8 164.05 49.04 160.15 49.04" style="fill:#f39200;"/><path d="M181.23,31.5h1.01l-6.16,17.54h-3.78l7.6-21.36h3.69l7.6,21.36h-3.78l-6.16-17.54M186.2,43.98h-8.94v-3.42h8.94v3.42Z" style="fill:#f39200;"/><path d="M202.95,49.47c-2.17,0-4.07-.46-5.72-1.38-1.65-.92-2.93-2.21-3.85-3.88-.92-1.66-1.38-3.61-1.38-5.85s.47-4.19,1.43-5.85c.95-1.66,2.26-2.96,3.93-3.87,1.67-.92,3.57-1.38,5.72-1.38,1.13,0,2.16.12,3.1.36.93.24,1.74.54,2.43.89l-.43,3.72c-.77-.36-1.57-.65-2.39-.88-.82-.23-1.73-.34-2.74-.34-1.49,0-2.74.32-3.74.95-1,.63-1.76,1.5-2.26,2.61-.51,1.11-.76,2.37-.76,3.8s.25,2.69.75,3.8c.5,1.11,1.24,1.98,2.24,2.61s2.22.95,3.7.95c1.03,0,1.95-.11,2.76-.34.81-.22,1.63-.52,2.46-.88l.43,3.72c-.8.38-1.69.68-2.65.91-.96.23-1.96.34-3,.34" style="fill:#f39200;"/><polyline points="216.01 49.04 216.01 31.47 209.97 31.47 209.97 27.69 225.96 27.69 225.96 31.47 219.92 31.47 219.92 49.04 216.01 49.04" style="fill:#f39200;"/><path d="M237.61,49.47c-2.03,0-3.84-.46-5.43-1.38-1.59-.92-2.83-2.21-3.74-3.88-.91-1.66-1.36-3.61-1.36-5.85s.45-4.19,1.36-5.85c.9-1.66,2.15-2.96,3.74-3.88,1.59-.92,3.4-1.38,5.43-1.38s3.84.46,5.43,1.38c1.59.92,2.83,2.21,3.74,3.88.9,1.66,1.36,3.61,1.36,5.85s-.45,4.19-1.36,5.85c-.91,1.66-2.15,2.96-3.74,3.88-1.59.92-3.4,1.38-5.43,1.38M237.61,45.69c1.42,0,2.61-.31,3.57-.94.96-.63,1.67-1.5,2.15-2.6.48-1.1.72-2.36.72-3.78s-.24-2.67-.72-3.77c-.48-1.1-1.2-1.97-2.15-2.6-.95-.63-2.15-.95-3.57-.95s-2.61.31-3.57.95-1.67,1.5-2.15,2.6c-.48,1.1-.72,2.36-.72,3.77s.24,2.67.72,3.78c.48,1.1,1.19,1.97,2.15,2.6.96.63,2.15.94,3.57.94Z" style="fill:#f39200;"/><path d="M251.55,49.04v-21.35h7.81c1.47,0,2.76.23,3.87.7,1.1.47,1.96,1.18,2.57,2.14.61.96.92,2.17.92,3.63,0,1.57-.33,2.81-1,3.73-.67.92-1.54,1.65-2.63,2.19l4.82,8.97h-4.36l-4.12-7.93h-3.97v7.93h-3.91M255.46,37.85h2.87c1.61,0,2.73-.33,3.36-.98.63-.66.94-1.49.94-2.49,0-1.07-.31-1.9-.93-2.51-.62-.6-1.69-.91-3.22-.91h-3.02v6.89Z" style="fill:#f39200;"/><polyline points="275.2 49.04 275.2 40.41 267.69 27.69 271.96 27.69 278.06 38.52 276.23 38.52 282.34 27.69 286.61 27.69 279.1 40.41 279.1 49.04 275.2 49.04" style="fill:#f39200;"/><path d="M36.45,31.46c0,1.46-1.18,2.63-2.63,2.63s-2.63-1.18-2.63-2.63,1.18-2.63,2.63-2.63,2.63,1.18,2.63,2.63" style="fill:#f39200;"/></g></g></g></g></g></svg>