<?xml version="1.0" encoding="UTF-8"?><svg id="Layer_2" xmlns="http://www.w3.org/2000/svg" xmlns:xlink="http://www.w3.org/1999/xlink" viewBox="0 0 103.06 103.2"><defs><clipPath id="clippath"><rect width="103.06" height="103.2" style="fill:none;"/></clipPath><clipPath id="clippath-1"><rect x="-972.46" y="-1420.04" width="1133.86" height="4251.97" style="fill:none;"/></clipPath><clipPath id="clippath-2"><rect x="-972.45" y="-1420.05" width="1133.85" height="4251.96" style="fill:none;"/></clipPath></defs><g id="Layer_1-2"><g style="clip-path:url(#clippath);"><g style="clip-path:url(#clippath-1);"><g style="clip-path:url(#clippath-2);"><path d="M35.2,34.45h36.94v11.7h-25.24v11.7h13.55v11.7h-13.55v23.36H11.8V11.05h48.56c22.51,0,40.93,18.42,40.93,40.93s-18.42,40.93-40.93,40.93h-1.77v-11.7h1.77c16.08,0,29.23-13.15,29.23-29.23s-13.15-29.23-29.23-29.23H23.5v58.46h11.7v-46.76" style="fill:#fff; fill-rule:evenodd;"/><path d="M72.6,63.52c0,2.43-1.97,4.39-4.39,4.39s-4.39-1.97-4.39-4.39,1.97-4.39,4.39-4.39,4.39,1.97,4.39,4.39" style="fill:#f39200;"/></g></g></g></g></svg>