<?xml version="1.0" encoding="UTF-8"?><svg id="Layer_2" xmlns="http://www.w3.org/2000/svg" viewBox="0 0 130.9 130.9"><g id="Layer_1-2"><path d="M130.9,65.45c0,36.13-29.32,65.45-65.45,65.45S0,101.58,0,65.45,29.32,0,65.45,0s65.45,29.32,65.45,65.45" style="fill:#fff; fill-rule:evenodd;"/><path d="M100.72,87.86v-26.81h-12.97c.29-10.59,4.48-16.6,15.17-20.13l-5.25-11.07c-5.63,2-10.3,4.86-14.02,8.4-3.72,3.53-6.3,7.54-7.63,12.02-1.43,4.48-2.1,10.59-2.1,18.41v19.17h26.81ZM55.98,87.86v-26.81h-12.97c.29-10.59,4.48-16.6,15.17-20.13l-5.25-11.07c-5.72,2-10.4,4.86-14.12,8.4-3.72,3.53-6.2,7.54-7.54,12.02-1.43,4.48-2.1,10.68-2.1,18.41v19.17h26.81Z" style="fill:#162636;"/></g></svg>