<?xml version="1.0" encoding="UTF-8"?><svg id="Layer_2" xmlns="http://www.w3.org/2000/svg" xmlns:xlink="http://www.w3.org/1999/xlink" viewBox="0 0 104.03 103.05"><defs><clipPath id="clippath"><rect x="0" y="0" width="104.03" height="103.05" style="fill:none;"/></clipPath></defs><g id="Layer_1-2"><g style="clip-path:url(#clippath);"><path d="M78.84,76.8c0-.84.68-1.52,1.52-1.52s1.52.68,1.52,1.52v24.74c0,.84-.68,1.52-1.52,1.52H1.52c-.84,0-1.52-.68-1.52-1.52V6.96c0-.84.68-1.52,1.52-1.52h24.1V1.52c0-.84.68-1.52,1.52-1.52h27.6c.84,0,1.52.68,1.52,1.52v3.93h24.11c.84,0,1.52.68,1.52,1.52v16.83c0,.84-.68,1.52-1.52,1.52s-1.52-.68-1.52-1.52v-15.31h-22.59v4.73c0,.84-.68,1.52-1.52,1.52h-27.6c-.84,0-1.52-.68-1.52-1.52v-4.73H3.03v91.54h75.81v-23.22M17.3,28.4h47.28c.84,0,1.52-.68,1.52-1.52s-.68-1.52-1.52-1.52H17.3c-.84,0-1.52.68-1.52,1.52s.68,1.52,1.52,1.52ZM62.49,81.22l7.92-4.57-7.92-4.57v9.14ZM95.31,35.78l-9.85-5.68-22.42,38.81,9.85,5.68,22.43-38.81ZM88.75,18.38c-9.68,16.75-19.36,33.5-29.04,50.25-.02.03-.03.05-.05.08-.14.24-.2.5-.21.76v14.38c0,.84.68,1.52,1.52,1.52.31,0,.61-.1.85-.26l12.38-7.14c.25-.15.43-.33.57-.58l29.07-50.31c.41-.72.17-1.64-.56-2.06l-12.46-7.19c-.72-.42-1.65-.17-2.06.56ZM100.46,26.87l-3.64,6.3-9.85-5.68,3.64-6.3,9.85,5.68ZM17.3,39.74h47.28c.84,0,1.52-.68,1.52-1.52s-.68-1.52-1.52-1.52H17.3c-.84,0-1.52.68-1.52,1.52s.68,1.52,1.52,1.52ZM17.3,62.4h38.05c.84,0,1.52-.68,1.52-1.52s-.68-1.52-1.52-1.52H17.3c-.84,0-1.52.68-1.52,1.52s.68,1.52,1.52,1.52ZM17.3,51.07h43.32c.84,0,1.52-.68,1.52-1.51s-.68-1.52-1.52-1.52H17.3c-.84,0-1.52.68-1.52,1.52s.68,1.51,1.52,1.51ZM17.3,85.06h33.91c.84,0,1.52-.68,1.52-1.51s-.68-1.52-1.52-1.52H17.3c-.84,0-1.52.68-1.52,1.52s.68,1.51,1.52,1.51ZM17.3,73.73h33.91c.84,0,1.52-.68,1.52-1.52s-.68-1.52-1.52-1.52H17.3c-.84,0-1.52.68-1.52,1.52s.68,1.52,1.52,1.52ZM53.22,3.03h-24.57v8.66h24.57V3.03Z" style="fill:#fff; fill-rule:evenodd;"/></g></g></svg>