<?xml version="1.0" encoding="UTF-8"?><svg id="Layer_2" xmlns="http://www.w3.org/2000/svg" xmlns:xlink="http://www.w3.org/1999/xlink" viewBox="0 0 116.34 102.23"><defs><clipPath id="clippath"><rect y="0" width="116.34" height="102.23" style="fill:none;"/></clipPath></defs><g id="Layer_1-2"><path d="M79.67,72.28c-9.23.18-16.73,7.79-16.73,17.06v10.97" style="fill:none; stroke:#fff; stroke-linecap:round; stroke-linejoin:round; stroke-width:3.84px;"/><g style="clip-path:url(#clippath);"><path d="M114.42,100.31v-10.97c0-9.27-7.5-16.87-16.73-17.06" style="fill:none; stroke:#fff; stroke-linecap:round; stroke-linejoin:round; stroke-width:3.84px;"/></g><path d="M103.19,51.41c0,7.36-6.02,13.39-13.39,13.39s-13.39-6.02-13.39-13.39v-10.47c0-7.36,6.02-13.39,13.39-13.39s13.39,6.02,13.39,13.39v10.47Z" style="fill:none; stroke:#fff; stroke-linecap:round; stroke-linejoin:round; stroke-width:3.84px;"/><line x1="1.92" y1="90.73" x2="51.19" y2="90.73" style="fill:none; stroke:#fff; stroke-linecap:round; stroke-linejoin:round; stroke-width:3.84px;"/><line x1="15.54" y1="50.49" x2="15.54" y2="90.73" style="fill:none; stroke:#fff; stroke-linecap:round; stroke-linejoin:round; stroke-width:3.84px;"/><polyline points="3.61 50.84 52.53 1.92 75.27 24.65" style="fill:none; stroke:#fff; stroke-linecap:round; stroke-linejoin:round; stroke-width:3.84px;"/><polyline points="73.94 11.12 73.94 2.53 81.9 2.53 81.9 19.09" style="fill:none; stroke:#fff; stroke-linecap:round; stroke-linejoin:round; stroke-width:3.84px;"/><path d="M30.79,83.05v-25.18c0-5.03,4.11-9.14,9.14-9.14s9.14,4.11,9.14,9.14v25.18" style="fill:none; stroke:#fff; stroke-linecap:round; stroke-linejoin:round; stroke-width:3.84px;"/><path d="M39.73,69.45c0,1.35-1.09,2.44-2.44,2.44s-2.44-1.09-2.44-2.44,1.09-2.44,2.44-2.44,2.44,1.09,2.44,2.44" style="fill:#fff;"/><path d="M76.59,40.35c6.07,0,11.53-2.61,15.33-6.77,2.22,4.04,6.51,6.77,11.45,6.77" style="fill:none; stroke:#fff; stroke-linecap:round; stroke-linejoin:round; stroke-width:3.84px;"/></g></svg>